<svg xmlns="http://www.w3.org/2000/svg" viewBox="0 0 250 250">
  <g id="_Layer_" data-name="&lt;Layer&gt;">
    <path d="M125,91c-39.7,0-72,15.25-72,34s32.3,34,72,34,72-15.25,72-34S164.7,91,125,91ZM55,125c0-10.08,10.25-19.08,26.23-25,12.08-3.92,8,5.21,5.61,9.32-.41.61-.79,1.23-1.14,1.87l0,0h0A28,28,0,0,0,82,125c0,13.77,10.42,25.63,25.34,31C77.27,152.38,55,139.86,55,125Zm31.24,10.43A25.7,25.7,0,0,1,84,125c0-16.06,15.26-29.36,35.05-31.62-5.94,4.92-10,17.05-10,31.62q0,2.48.15,4.83C111,160.54,91.62,147.55,86.24,135.43ZM125,157c-7.59,0-14-14.65-14-32s6.41-32,14-32,14,14.65,14,32S132.59,157,125,157Zm16-32q0-2.48-.15-4.83c-.86-13.24,17.53-17.72,22.91-5.6A25.7,25.7,0,0,1,166,125c0,16.06-15.26,29.36-35.05,31.62C136.89,151.7,141,139.57,141,125ZM168.75,150c-18.93,6.36-13.13-.74-10.84-3.12C164.2,140.92,168,133.31,168,125s-3.79-15.9-10.06-21.8c-2.26-2.35-8.19-9.53,10.74-3.18,16,5.87,26.32,14.88,26.32,25S184.74,144.08,168.75,150Z"/>
  </g>
</svg>
