<svg xmlns="http://www.w3.org/2000/svg" viewBox="0 0 250 250">
  <g id="_Layer_" data-name="&lt;Layer&gt;">
    <g>
      <path d="M200.52,111.19l0,0a1.66,1.66,0,0,1,.19-.19A.74.74,0,0,0,200.52,111.19Z"/>
      <path d="M217,99.61c-1.3-7.84-7.7-13.86-14.11-17.9-5.08-3.16-10.51-5.83-15.81-8.57-10.31-5.31-20.76-10.36-31.35-15.07a362.12,362.12,0,0,0-37.36-14.59A153.31,153.31,0,0,0,101.48,39q-4.35-.84-8.76-1.31c-4.51-.48-9.27-.46-12.85,2.8-4.5,4.1-3.65,10.4-1.35,15.37,1.76,3.81,4.51,7.33,7,10.66a121.34,121.34,0,0,0,18.89,20l.16.13c-10.3,11.18-20.53,22.42-30.29,34.08-10.53,12.59-21.22,25.64-28.47,40.47a82.83,82.83,0,0,0-8.15,26.91,6,6,0,0,0,1.76,4.24,6.09,6.09,0,0,0,4.24,1.76A49,49,0,0,0,65,188c6.41-3.48,12.17-8,17.82-12.62,2.77-2.24,5.51-4.52,8.29-6.74l2-1.6,0,0,1.21-.91c1.4-1.05,2.81-2.07,4.26-3l.16-.11c.4.81.79,1.63,1.18,2.45q1.42,3,2.77,6c.42.93.83,1.86,1.24,2.8l.66,1.51.27.65,0,0,0,0c3.33,8.07,6.36,16.24,9,24.57,2.07,6.63,5.2,14.65,11.92,17.84a13.65,13.65,0,0,0,12.91-.43c3.62-2.18,5.75-5.75,7.22-9.59a44,44,0,0,0,2.11-10.73q.8-6.84,1.28-13.71a304.26,304.26,0,0,0-1.09-54.49c0-.22-.06-.44-.08-.66a283.06,283.06,0,0,0,39.61-1.76c7.8-1,15.27-2.8,21.44-7.94A21.45,21.45,0,0,0,217,99.61ZM88.23,49.22Zm-.48.34h0C87.63,49.68,87.58,49.73,87.75,49.56Zm12.37,112.52a1.15,1.15,0,0,0,.41-.13A.64.64,0,0,1,100.12,162.08Zm.12-.07c.09-.06.16-.09.18-.08S100.35,162,100.24,162Zm31.42,46.28,0,0,.1,0Zm-.35-.08.24.08a.44.44,0,0,1-.27,0S131.28,208.21,131.31,208.21ZM204.84,105.8a9.1,9.1,0,0,0-.8,1.59c-.2.32-.4.63-.61.94a1.3,1.3,0,0,0-.1.15l-.36.41c-.25.29-.51.56-.78.83s-1,.86-1.45,1.26c.25-.17.55-.31.06,0l-.25.17s-.06.07-.05.08,0,0,0-.06l-.66.44c-.54.35-1.11.67-1.68,1l-1.17.57a2.28,2.28,0,0,0-.3.19,17.83,17.83,0,0,1-1.91.58,41.56,41.56,0,0,1-4.66,1.12c-.71.13-1.43.24-2.14.35l-1.47.17c-6.91.76-13.87,1.16-20.82,1.41q-12.12.45-24.24,0c-2.93-.1-6.41,2.85-6,6a304.55,304.55,0,0,1,2.37,53.48q-.28,6.63-.87,13.25c-.2,2.28-.43,4.57-.68,6.85-.11,1-.23,2-.35,3-.08.39-.13.8-.2,1.19a28.13,28.13,0,0,1-1.13,4.33c-.11.3-.26.6-.35.91l.11-.36c0,.08-.07.17-.11.24-.16.32-.34.64-.53,1-.06.11-.24.36-.37.54l-.15.17c-.13.14-.35.29-.5.44l-.07,0c-.2.06-.42.15-.6.2l-.16,0-.39-.09a5,5,0,0,1-.57-.3l-.07,0c-.19-.17-.48-.42-.59-.53s-.44-.45-.65-.68l0,0c-.29-.64-.87-1.26-1.22-1.86s-.71-1.31-1-2c-.14-.3-.26-.63-.41-.92a1.34,1.34,0,0,1-.07-.18c-.61-1.58-1.1-3.19-1.61-4.8q-3.87-12.24-8.86-24.1-2.72-6.48-5.7-12.84a32.54,32.54,0,0,0-2.62-5,10.39,10.39,0,0,0-7.93-4.79c-4.43-.29-8.28,3-11.63,5.47-3,2.28-6,4.65-9,7.05-2.71,2.21-5.4,4.44-8.15,6.6l-.85.67-.17.13c-.7.54-1.4,1.06-2.11,1.58q-2,1.49-4.12,2.87a62.84,62.84,0,0,1-8.54,4.8l-.5.22-.71.29c-.77.3-1.56.57-2.35.83l-.87.24c.23-.88.48-1.77.75-2.65q.8-2.61,1.77-5.17l.54-1.37c0-.09.16-.38.25-.61-.28.69.22-.48.31-.68.22-.51.46-1,.7-1.54a127.36,127.36,0,0,1,11.69-19.61c1.08-1.52,2.17-3,3.29-4.5.55-.75,1.11-1.48,1.68-2.22l.24-.32h0l0,0,.14-.18c.51-.67.19-.23,0,0,.29-.33.54-.7.8-1q4-5.1,8.13-10.08c5.41-6.52,11-12.9,16.62-19.21,6.46-7.21,13-14.32,19.57-21.43a6,6,0,0,0,1.65-5,6.23,6.23,0,0,0-2.86-4.38l-.68-.52,0,0-.28-.22-.5-.39c-.89-.71-1.77-1.44-2.64-2.17-1.63-1.38-3.22-2.81-4.77-4.27a116.94,116.94,0,0,1-8.66-9.15c-.64-.76-1.27-1.53-1.9-2.31l-.78-1v0l0-.06L96,60.64a1.37,1.37,0,0,1-.13-.2l-.23-.28Q93.74,57.61,92,54.94c-.55-.82-1.1-1.66-1.63-2.5-.27-.42-.53-.85-.77-1.28a6.8,6.8,0,0,0-.62-1.27l-.06-.15a2.86,2.86,0,0,1-.07-.28c1.23,0,2.47.12,3.69.24l1.44.17.63.09c1.25.19,2.49.41,3.73.65a149.86,149.86,0,0,1,16.16,4.22c5.84,1.83,11.6,3.91,17.31,6.12q4.49,1.75,8.93,3.6l1,.43,2.11.9,4.38,1.91c10.37,4.57,20.59,9.48,30.69,14.63,5.77,3,11.57,5.92,17.17,9.21l.74.44c.59.37,1.17.75,1.74,1.15l.76.55,0,0a32.39,32.39,0,0,1,3.08,2.89c.18.19.35.39.51.59v-.06s0,0,0,.06l.11.12c.43.52.27.46.09.27.28.4.72.92.83,1.1s.37.64.54,1,.39,1.21.17.28,0,.12.1.3a12.49,12.49,0,0,1,.37,1.23c.06.24.11.49.16.74v0c0,.59,0,1.16,0,1.75-.05.23-.09.46-.15.69S205,105.46,204.84,105.8Z"/>
      <path d="M72.39,142.17h0l.12-.15A1.71,1.71,0,0,1,72.39,142.17Z"/>
      <path d="M134.37,205.68c.17-.44.29-.93,0,0Z"/>
      <path d="M95.89,60.44a2.53,2.53,0,0,1,.25.35l0,0C95.8,60.07,95.75,60.18,95.89,60.44Z"/>
      <path d="M202.94,97.27h0a.79.79,0,0,0,.21.39A1.3,1.3,0,0,1,202.94,97.27Z"/>
    </g>
  </g>
</svg>
