<svg xmlns="http://www.w3.org/2000/svg" viewBox="0 0 250 250">
  <g id="Isolation_Mode" data-name="Isolation Mode">
    <path d="M208.49,233a9,9,0,0,1-4.24-1c-4.58-2.41-6.05-7.86-4.16-15.36,2.07-8.2,5.7-16,9.2-23.58,4.3-9.28,8.4-18.13,9.87-27.58a165,165,0,0,0-22,23.34c-2.29,3-4.53,6.07-6.69,9.08a170.51,170.51,0,0,1-14.2,17.93c-7,7.38-18.29,16.31-32.31,16.94a9.55,9.55,0,0,1-4.19-.72,7.8,7.8,0,0,1-4.46-4.7c-1.67-4.84,1.07-10.7,2.33-13,7.74-14.13,18-26.85,27.87-39.15,4.71-5.85,9.58-11.9,14.1-18,16.29-22,24.47-41,25.52-59.29-23.34,16.73-47.1,34.27-63.88,58.05-3.49,4.95-6.72,10.24-9.84,15.36-4.77,7.81-9.69,15.89-15.73,23.06-8.36,9.91-18.52,16.91-28.62,19.7a6.55,6.55,0,0,1-6.85-10.44c12.53-15.39,26.56-33.45,35.57-54a12.56,12.56,0,0,0-5.36,2.72c-9.66,7.42-17.15,17.53-24.39,27.32-3.62,4.88-7.35,9.93-11.35,14.64-6.61,7.8-17.32,18-30.77,22.54a12.57,12.57,0,0,1-13.36-3.43,12.71,12.71,0,0,1-2.38-13.76c4.48-10.51,12-21.23,22.29-31.84,6.11-6.28,12.74-12.19,19.16-17.9,7.1-6.32,14.45-12.86,21-19.89,12.87-13.74,13.39-23.54,11.56-29.34a4.52,4.52,0,0,0-1.42-2.43,4.92,4.92,0,0,0-2.74-.52C84.48,98,74.7,112,67.56,122.15c-11.94,17-24,24.52-36,22.19a9.48,9.48,0,0,1-5.78-3c-2.76-3.31-1.52-8.11-1.12-9.69,3.57-13.93,12.74-25.21,21.6-36.13,5.66-7,11.52-14.17,15.82-22,1.56-2.83,2.27-5.19,2.13-7L24.86,95.68a8,8,0,0,1-11-11.39C35.79,56,78.2,14.08,83.43,9.6h0A15.48,15.48,0,0,1,95.68,6.21a11,11,0,0,1,7.91,5.06,20.94,20.94,0,0,1,1.74,4.08c.66,2,1.23,3.63,2.5,4.49,1.69,1.15,4,.51,6.72-.23,3.55-1,8-2.18,11.81,1.14a10.64,10.64,0,0,1,2.2,13c-3.64,7.1-11.52,9.14-18.74,10.2l-1,.15c-5.25.76-10.67,1.54-14.51,4.68-3.22,2.63-5.35,7.07-6,12.48-.39,3.25-.09,5.78.9,7.72C92,74.33,100,75.09,106.1,72.72c11.81-4.55,18.45-15.67,25.49-27.44,3.87-6.49,7.88-13.2,12.87-18.83,5.72-6.45,11.41-9.11,17.37-8.1a10.19,10.19,0,0,1,8.46,8c.88,4.75-1.94,8.18-4.43,11.21-2.16,2.62-4,4.89-3.71,7.73A2.81,2.81,0,0,0,164,47.75c1,.31,1.82-.19,3.39-1.41l.28-.22a36.9,36.9,0,0,1,23.8-7.68,7.81,7.81,0,0,1,3.7,1.05c2.36,1.4,4.6,4.34,1.88,10.39-7.65,17-23.53,27.41-38.88,37.48-9.2,6-18.72,12.28-26.39,19.88-2.14,2.12-4.24,4.47-5,7.26a2.7,2.7,0,0,0,1.11,3.06,2.89,2.89,0,0,0,3.44,0,674.36,674.36,0,0,1,68.24-44.57c5.19-3,13.05-7.44,21.14-2.71a18.14,18.14,0,0,1,8.26,11.46c2.25,8.94-.67,17.35-3.5,25.48l-.43,1.25c-1.89,5.46-3.85,11.75-3.41,17.72a10.94,10.94,0,0,1,16.24,10.47,403.73,403.73,0,0,1-15.54,81.33c-1.32,4.39-3.13,10.41-8.61,13.63A10.24,10.24,0,0,1,208.49,233Zm13.17-74.31a2,2,0,0,1,2,2.1c-.63,12.1-5.77,23.19-10.74,33.91-3.43,7.4-7,15-8.95,22.88-.81,3.2-1.61,8.87,2.14,10.85a5.77,5.77,0,0,0,5.53-.32c3.82-2.24,5.34-6.46,6.8-11.33a400.15,400.15,0,0,0,15.39-80.52,6.94,6.94,0,0,0-10.47-6.54l-.16.09a3.69,3.69,0,0,1-5.57-2.84c-.66-6.9,1.49-13.87,3.57-19.86l.43-1.26c2.64-7.58,5.36-15.42,3.4-23.19a14.18,14.18,0,0,0-6.4-9c-5.64-3.3-11.1-.71-17.14,2.73a670.88,670.88,0,0,0-67.83,44.31,6.89,6.89,0,0,1-8.09.15,6.68,6.68,0,0,1-2.73-7.35l0-.15c1-3.65,3.64-6.58,6.05-9,8-7.89,17.65-14.24,27-20.39,15.55-10.2,30.25-19.83,37.42-35.77,1.83-4.06.46-4.88-.28-5.32a3.81,3.81,0,0,0-1.79-.48,33.21,33.21,0,0,0-21.21,6.84l-.27.21c-1.65,1.29-3.91,3-7,2.08a6.82,6.82,0,0,1-4.62-5.88c-.49-4.51,2.21-7.8,4.6-10.7,2.21-2.7,4.12-5,3.58-7.94a6.16,6.16,0,0,0-5.18-4.75c-4.5-.76-9,1.47-13.72,6.81S138.8,41,135,47.33C128,59.17,120.64,71.41,107.53,76.46c-7.79,3-18.11,1.7-21.89-5.66-1.38-2.67-1.81-6-1.33-10,.77-6.45,3.41-11.81,7.44-15.11,4.7-3.84,10.68-4.7,16.46-5.54l1-.15c6.53-1,13-2.6,15.76-8.07a6.66,6.66,0,0,0-1.26-8.14c-2.07-1.79-4.46-1.31-8.14-.3-3.19.87-6.81,1.86-10-.32-2.37-1.61-3.26-4.21-4-6.51a18.29,18.29,0,0,0-1.37-3.3,7.13,7.13,0,0,0-5.12-3.19,11.61,11.61,0,0,0-9,2.49c-3.66,3.14-46.34,44.87-69,74.1A3.86,3.86,0,0,0,17.35,92a3.8,3.8,0,0,0,5.15.45l.15-.11L64.06,61.68a2,2,0,0,1,2.88.53c2.14,3.34,1.69,7.81-1.32,13.27C61.15,83.59,55.18,90.93,49.41,98c-9,11.06-17.48,21.51-20.83,34.59-.76,3-.66,5,.31,6.15a5.87,5.87,0,0,0,3.47,1.64c10.23,2,21-4.92,31.93-20.57C71.92,109,82.37,94,98,93.7a8.58,8.58,0,0,1,5.11,1.23,8.33,8.33,0,0,1,3,4.52c3.13,9.92-1,21.11-12.45,33.28-6.7,7.15-14.12,13.76-21.3,20.14-6.36,5.66-12.93,11.52-18.94,17.7-10,10.26-17.19,20.56-21.48,30.62a8.74,8.74,0,0,0,1.64,9.47A8.48,8.48,0,0,0,42.67,213c12.58-4.21,22.71-13.93,29-21.34,3.91-4.61,7.61-9.6,11.18-14.43,7.41-10,15.07-20.36,25.18-28.12,4.39-3.37,8.12-4.37,11.42-3a2,2,0,0,1,1.1,2.62c-9.15,22.08-24,41.22-37.2,57.44a2.47,2.47,0,0,0-.15,3A2.5,2.5,0,0,0,86,210.2c9.33-2.58,18.79-9.13,26.63-18.43,5.84-6.93,10.68-14.88,15.37-22.56,3.16-5.18,6.42-10.53,10-15.59,18-25.44,43.45-43.7,68.1-61.35a2,2,0,0,1,3.16,1.63c0,20.46-8.41,41.31-26.42,65.65-4.57,6.17-9.46,12.26-14.2,18.14-9.78,12.17-19.9,24.74-27.47,38.56-1.61,2.94-3,7-2.06,9.76a3.75,3.75,0,0,0,2.26,2.33,5.46,5.46,0,0,0,2.43.41c12.69-.58,23.1-8.86,29.59-15.7a167.54,167.54,0,0,0,13.85-17.52c2.18-3,4.44-6.17,6.77-9.18a170.08,170.08,0,0,1,26.37-27.2A2,2,0,0,1,221.66,158.7Zm-.51-32.31h0Z"/>
  </g>
</svg>
