<svg xmlns="http://www.w3.org/2000/svg" viewBox="0 0 250 250">
  <g id="_Layer_" data-name="&lt;Layer&gt;">
    <path d="M214.47,130.52c-2.79-.94-7.31-1.29-12.54-1.25,8.58-6.73,24.48-20.94,21.52-29.14a9.24,9.24,0,0,0-5.33-5.53c-11.18-4.72-35.27,5.81-49.38,12.2a14.75,14.75,0,0,0-2.87-2.7A15.43,15.43,0,0,0,155,101.52a59.25,59.25,0,0,0,6-18.47,4.94,4.94,0,0,0-2.48-5.12,5.07,5.07,0,0,0-5.75.44,103.56,103.56,0,0,0-26.8,32.4,32.31,32.31,0,0,0-.48-12.3,4.43,4.43,0,0,0-1.9-2.69,3.54,3.54,0,0,0-3.08-.39c-2,.66-3.57,3-4.28,4.76-2.68,6.7-2.07,16.11-1.46,21.2C105.68,113.09,78.05,89.7,70,93.28c-1.18.52-2.54,1.8-2.38,4.92.42,8,20.74,17,42.87,25.49-6.39.15-13.31,0-20.53-.16-20.6-.45-43.94-1-60.68,5.88a3.56,3.56,0,0,0-2.22,2.89,3.2,3.2,0,0,0,2.37,3.24,29.68,29.68,0,0,0,7.31,1.83c-6.59,1.82-12.31,4.28-14.8,8a7.63,7.63,0,0,0-1.15,6.06c.48,1.71,1.95,6.91,30.56,4.19h0a3,3,0,0,0-.93,2.12c0,1.16.76,2.14,2.21,2.9,5.93,3.09,18.83,2.14,23.3,1.52a230,230,0,0,0,29.14-6.33l1.77-.47.25.22c3.69,3,8.47,4.08,12.66,4.83,8.61,1.53,30.4,3.62,50.57,4.32q7.35.25,13.49.26c17.41,0,27.62-1.53,30.41-4.56a3.29,3.29,0,0,0,.81-3.24c-1-3.1-6-5.52-15.46-7.34a65.93,65.93,0,0,0,13.18-7.1c4.19-3.11,6.05-6,5.53-8.74C218.05,132.46,216.75,131.29,214.47,130.52Zm-46.6-20.59c2.39,4,2.61,9.29.11,13.1a16.06,16.06,0,0,1-5.37,4.31,39.9,39.9,0,0,1-20.94,3.75,2.8,2.8,0,0,1-1.45-.39c-.51-.46-.2-1.69.34-2.62,2.48-4.23,16.94-13.66,22.18-15.86C164,111.67,165.82,110.87,167.87,109.93ZM70.15,98.07c-.11-2.06.64-2.4.89-2.51a3,3,0,0,1,1.22-.22c6.91,0,27.3,15.57,38.77,25.87C98.84,116.52,70.53,105.42,70.15,98.07Zm36.61,52.51a2.72,2.72,0,0,1,.82-2,4.94,4.94,0,0,1,1.78-1.22,37.86,37.86,0,0,1,14.34-2.78,38.48,38.48,0,0,1,8.43.93c-4,2.08-8.54,3.14-12.95,4.18-4.13,1-7.9,1.94-11.51,2.89A3.72,3.72,0,0,1,106.76,150.58Zm104.56-9.86A70.64,70.64,0,0,1,195,149q-7.57-1.17-18.15-2l-.29,0c-6-.47-16.44-.47-18.26,4.67a1.23,1.23,0,0,0-.08.38,4.55,4.55,0,0,0,2.67,4.35c5.64,3,20.89.07,34.2-4.85,14.43,2.28,17.16,5,17.57,6.28a.79.79,0,0,1-.26.83c-6.51,7.09-73.77,2.5-92.19-.78-3.4-.61-7.21-1.42-10.27-3.4,3.09-.8,6.3-1.62,9.77-2.44,5.31-1.24,11.33-2.66,16.26-6a1.26,1.26,0,0,0-.33-2.23A40.8,40.8,0,0,0,108.41,145a7.16,7.16,0,0,0-2.69,1.86,5.17,5.17,0,0,0-1.45,3.9,5.59,5.59,0,0,0,.83,2.45l-.61.17a229.79,229.79,0,0,1-28.85,6.27c-5.9.82-17,1.21-21.79-1.27-.72-.38-.87-.66-.87-.72s0-.26.81-.82,1.79-1.22,2.71-1.8a288,288,0,0,0,34-5.92c4.08-1.06,5.71-1.64,5.35-3.16a1.27,1.27,0,0,0-1-.95,57.67,57.67,0,0,0-39.14,7.6c-12.45,1.44-24.5,2-30-.06-1-.35-2.17-.95-2.39-1.74a5.1,5.1,0,0,1,.79-4.07c3-4.41,12.35-7,21.32-8.84a393.4,393.4,0,0,0,42.34-1.08,1.25,1.25,0,0,0,.54-2.32c-8.88-5.27-19.54-3.71-30.59-1.49-1.62.33-3.41.66-5.31,1-2.32.42-4.76.87-7.21,1.37l-.74,0c-4.93-.16-9.71-.44-14-2.17-.85-.34-.84-.49-.82-.69a1,1,0,0,1,.68-.8c16.25-6.65,39.32-6.15,59.67-5.7,9.59.2,18.65.4,26.71-.08a1.27,1.27,0,0,0,1.16-1,.66.66,0,0,0,0-.14.91.91,0,0,0,0-.33c-.09-.53-2.64-14.78.8-23.39.64-1.61,1.79-3,2.74-3.3a1,1,0,0,1,1,.13,2,2,0,0,1,.81,1.19c1.86,7.24-.07,15-1.77,21.85a1.25,1.25,0,0,0,2.38.77,100.66,100.66,0,0,1,30.65-41.39,2.58,2.58,0,0,1,2.94-.22,2.46,2.46,0,0,1,1.26,2.58,56.69,56.69,0,0,1-6.74,19.46c-6.28,1.74-14.37,6.92-24,19.27a1.25,1.25,0,0,0,0,1.46,1.23,1.23,0,0,0,1.36.51c5.33-1.43,12.95-5,16.59-8.85a57.41,57.41,0,0,0,7.69-10.23,12.85,12.85,0,0,1,10.95,1.83,12.37,12.37,0,0,1,1.94,1.74c-1.83.84-3.42,1.55-4.59,2-4.89,2.06-20.36,11.78-23.37,16.91-1,1.69-1.55,4.2.13,5.73a4.81,4.81,0,0,0,2.91,1,42.37,42.37,0,0,0,22.25-4,17.86,17.86,0,0,0,6.37-5.19,14.93,14.93,0,0,0,.12-15.51c13.11-5.92,36.9-16.24,47-12A6.75,6.75,0,0,1,221.1,101c2.46,6.81-15.39,22.73-23.37,28.41-14.19.65-31.29,3.72-34.08,6.2a1.75,1.75,0,0,0-.66,1.65,2.39,2.39,0,0,0,1.52,1.8c4.69,2.18,23.93-1,32.5-6.17.3-.18.82-.53,1.52-1,6.54-.28,11.74,0,14.76.93,1.53.46,2.48,1.07,2.59,1.69C216.2,136.08,214.58,138.31,211.32,140.72Zm-21.46,10.14c-11.62,3.78-23.5,5.62-27.77,3.38a2.08,2.08,0,0,1-1.33-1.85c1.1-2.35,7.32-3.48,15.65-2.85l.29,0C181.76,150,186.12,150.39,189.86,150.86Zm-127.14.87a55.48,55.48,0,0,1,22.86-4.95c1.2,0,2.4,0,3.6.11C83.51,148.29,73.39,150.24,62.72,151.73Zm-5-16.15.47-.1a81.09,81.09,0,0,1,15.66-2,28.56,28.56,0,0,1,8.78,1.24C74.31,135.26,66,135.55,57.67,135.58Zm92-30a53.8,53.8,0,0,1-5.73,7.19c-2.41,2.54-7.08,5.12-11.4,6.81C137.75,113.57,143.78,108.27,149.69,105.62Zm43.2,26.59a63.21,63.21,0,0,1-15,4.25c-6.4,1.06-10.14.88-11.69.52,2.45-1.07,9.58-2.78,19.9-4.06C188.41,132.63,190.7,132.39,192.89,132.21Z"/>
  </g>
</svg>
