<svg xmlns="http://www.w3.org/2000/svg" viewBox="0 0 250 250">
  <g id="_Layer_" data-name="&lt;Layer&gt;">
    <path d="M240.51,179.42a24.4,24.4,0,0,0-3.24-5.68l-.12-.13c0-.05-.07-.11-.12-.17-5.77-6.8-13.19-11.82-22.12-13.18a56.53,56.53,0,0,0-11.2-.44A38.06,38.06,0,0,0,206.43,144a31,31,0,0,0-1.15-6.76,1.6,1.6,0,0,0-.15-.35h0a38.72,38.72,0,0,0-8-10.92,35.54,35.54,0,0,0-10.06-7.51,27.89,27.89,0,0,0-11.81-2.49,53.62,53.62,0,0,0,4.09-16.39c.6-8.28-1.76-17.07-7.54-23.2a23.59,23.59,0,0,0-4.67-3.78,33.24,33.24,0,0,0-13.68-4.68,39.22,39.22,0,0,0-13.42,1.24c-1.76.43-3.5.94-5.24,1.48a71.8,71.8,0,0,0,1-21.08c-.89-8-3.47-16.27-9.27-22.13a25.27,25.27,0,0,0-4.64-3.66,1.81,1.81,0,0,0-.49-.2,27.8,27.8,0,0,0-14.23-1.33,108.15,108.15,0,0,0-13.45,3.64,46.44,46.44,0,0,0-4.41,1.6c-.32-.54-.66-1.07-1-1.58a34.12,34.12,0,0,0-10.5-9c-2-1.18-4-2.24-6-3.31l-.16-.06-.2-.09c-4.72-1.52-9.76-2.65-14.74-2.13s-9.24,2.83-13.19,5.9c-7.7,6-13.71,14.2-18.94,22.35C13.89,56.08,6.64,75.64,7.62,95.6c.22,4.57.77,9.33,2.94,13.44A16.55,16.55,0,0,0,20.77,117c8.87,2.64,18.82.56,27-3.38a54.55,54.55,0,0,0,13.67-9.51c.12.32.23.64.36,1,1.79,4.36,3.92,8.88,8,11.52s9.18,3.16,13.85,3.65a53,53,0,0,0,10,.18,42.51,42.51,0,0,0,.36,6.84,37.32,37.32,0,0,0,11,22.06A31.93,31.93,0,0,0,118.53,157c-4,8.46-6.48,17.92-5.49,27.3.48,4.48,1.53,9.36,4.24,13.07,3,4,7.41,5.27,12.16,5.92a61.74,61.74,0,0,0,9.4.53,30.26,30.26,0,0,0,.67,15.73A24.5,24.5,0,0,0,147.29,231a37.15,37.15,0,0,0,12.53,6.37c10.18,3.16,21.81,4.78,32.2,1.8a84.88,84.88,0,0,0,14.76-6.3,131.34,131.34,0,0,0,12.91-7.32c7.86-5.17,15.27-11.81,19.28-20.48C242.64,197.19,243.87,187.66,240.51,179.42ZM61.81,95.78c-4.57-17.19-2.13-36.28,9-50.48a49.74,49.74,0,0,1,17.09-14,19.57,19.57,0,0,1,.86,2.26c2.84,9.42-.24,19.21-4.07,27.86C79,74.4,72.48,88.17,62.64,98.69,62.35,97.72,62.07,96.75,61.81,95.78Zm-8.9,11.36c-7.21,4.91-15.73,8.16-24.55,7.94-4.14-.1-8.62-.92-11.95-3.56s-4.75-6.94-5.36-11.07c-1.33-9-.32-18.56,1.86-27.38a103.62,103.62,0,0,1,10.44-25.8A112.28,112.28,0,0,1,39.7,24.6a43.3,43.3,0,0,1,10.52-8.39c4.17-2.23,9-2.48,13.6-1.69a48.63,48.63,0,0,1,6.62,1.68c6.11,3.2,12.41,6.73,16.08,12.49A51.39,51.39,0,0,0,72.37,39a55.4,55.4,0,0,0-13.1,22,63.42,63.42,0,0,0-1.66,29.58,68.41,68.41,0,0,0,2.68,10.47A56.12,56.12,0,0,1,52.91,107.14Zm24.37,9.11a17.42,17.42,0,0,1-6.3-2.5,14.52,14.52,0,0,1-4.23-5.07,48.32,48.32,0,0,1-3.06-6.84c9-9.35,15.45-21.37,21-33.09,4.33-9.21,8.88-19,8.16-29.46a28.39,28.39,0,0,0-2.15-9.22c3.49-1.41,7.18-2.35,10.79-3.41,4-1.18,8.12-2.17,12.35-1.85a25.48,25.48,0,0,1,6.67,1.55c6.47,4,10,11.1,11.55,18.36,1.78,8.11,1.38,16.71-.06,24.84-.13.72-.28,1.43-.42,2.14a61.11,61.11,0,0,0-15.64,8.24c-11.88,8.87-20.65,22.67-22.07,37.5A53.48,53.48,0,0,1,77.28,116.25Zm53.46-41A76.08,76.08,0,0,1,122.82,95c-4.36,7.53-10.23,15.25-18.08,19.37A28.41,28.41,0,0,1,96.88,117c1.37-11.76,7.72-23,16.36-31A55.85,55.85,0,0,1,130.74,75.27ZM98.15,132.39a37.43,37.43,0,0,1-1.51-12.34c.67-.11,1.33-.23,2-.38,9.67-2.1,16.84-9,22.53-16.7a77.19,77.19,0,0,0,12.25-26c.26-1,.49-2,.71-2.93l.2-.07c8-2.71,16.53-4.57,24.84-1.85a32.27,32.27,0,0,1,6.49,3c6.53,4,10.08,11.6,10.72,19.08s-1.44,15-4.41,21.85A51.44,51.44,0,0,0,159.28,119a65.68,65.68,0,0,0-23.91,14.33,80,80,0,0,0-15.48,20.93,27.84,27.84,0,0,1-8.93-4A33.35,33.35,0,0,1,98.15,132.39Zm72.43-13.25c-.27.56-.54,1.12-.82,1.68-7.42,15-18.58,29.86-35.82,33.6a31.2,31.2,0,0,1-11,.44,78.62,78.62,0,0,1,10-14.61,59.39,59.39,0,0,1,20.27-15.57C158.6,122.24,164.55,120,170.58,119.14Zm-33.1,81.74a42,42,0,0,1-12.72-1.59c-4.32-1.42-6.45-5.22-7.62-9.38-2.51-8.86-1.13-18.26,2-26.77.69-1.84,1.47-3.65,2.32-5.44a32,32,0,0,0,6.43.47c9.09-.28,17.75-4,24.79-9.65s12.6-13.25,17-21.18c1.53-2.75,3-5.59,4.32-8.5a28.09,28.09,0,0,1,5.49.34c8.31,1.36,15.16,7.38,20,14a30.14,30.14,0,0,1,2.92,4.88c2.1,7.47,1,15-1.92,21.94-3.35.28-6.67.71-9.94,1.16-18.87,2.57-37.2,14-46.94,30.53a41,41,0,0,0-4,9.12C138.9,200.86,138.19,200.89,137.48,200.88ZM199,163.26a69.13,69.13,0,0,1-16.24,20.11c-11.12,9.62-25.28,16.07-40,17.29.31-.93.65-1.85,1-2.75,3.67-8.47,10.18-15.75,17.48-21.3a64.32,64.32,0,0,1,24.19-11.45,96.4,96.4,0,0,1,12.43-1.79Zm39.2,35.41c-2.47,8.63-8.34,15.57-15.33,21-7.35,5.72-15.9,10.13-24.37,13.93a43.29,43.29,0,0,1-15.16,4.08,60.53,60.53,0,0,1-15.93-1.44c-8.5-1.75-17.81-4.78-22.69-12.52-3.76-6-4.35-13.24-2.81-20a72.76,72.76,0,0,0,37.51-13.9,75.33,75.33,0,0,0,18.72-19.3,58.35,58.35,0,0,0,4.23-7.54c2.23-.16,4.45-.26,6.68-.21A32.21,32.21,0,0,1,230,170.49a46.36,46.36,0,0,1,4.85,5C239.84,182.12,240.45,190.81,238.2,198.67Z"/>
  </g>
</svg>
