<svg xmlns="http://www.w3.org/2000/svg" viewBox="0 0 250 250">
  <g id="Isolation_Mode" data-name="Isolation Mode">
    <polygon points="7.88 122.06 10.81 71.35 27.39 117.67 38.11 75.74 43.96 122.06 57.62 60.62 66.88 122.06 87.36 81.59 95.65 115.23 120.8 46.48 133.68 119.62 144.41 94.27 149.28 118.65 158.06 77.69 168.3 115.72 185.36 65.5 192.19 118.65 202.43 67.45 225.83 136.69 236.56 63.55 236.56 187.4 225.34 151.31 219.49 198.61 200.48 144 183.9 183.98 179.51 128.14 155.13 171.79 155.13 128.14 144.41 178.13 135.63 138.64 124.42 178.13 116.61 114.26 104.91 185.45 98.08 128.14 75.66 177.64 66.39 139.13 52.74 176.67 52.74 132.3 39.09 186.42 28.36 132.79 17.63 183.5 17.63 135.22 7.88 172.77 7.88 122.06"/>
  </g>
</svg>
