<svg xmlns="http://www.w3.org/2000/svg" viewBox="0 0 250 250">
  <g id="_Layer_" data-name="&lt;Layer&gt;">
    <path d="M140.37,225.72a13.59,13.59,0,0,1-7.11-2.09c-9.2-5.71-11.43-17.39-6-31.26.92-2.32,2-4.63,3-6.87,2.68-5.88,5.2-11.44,5.62-17.48.55-8.05-2.7-15.6-6.14-23.6-1.13-2.63-2.31-5.36-3.32-8.08-3-8-4.33-18.47-.72-26.48-10.29,5-28,12.79-38.14,13.44a2,2,0,0,1-1.59-.64,2,2,0,0,1-.52-1.64,36.24,36.24,0,0,1,13.4-23L72.3,99.59a2,2,0,0,1-1.88-1,12.2,12.2,0,0,1-.14-11.08,21.1,21.1,0,0,1,14-11.17c5.45-1.22,11-.8,16.33-.39a77.69,77.69,0,0,0,10.66.32c8.26-.52,17.06-5.71,16.88-13.19-.07-2.79-1.36-5.46-2.73-8.29-.38-.8-.77-1.6-1.13-2.4a44.09,44.09,0,0,1-1.39-32,3.51,3.51,0,0,1,5.91-1.23C150,41.9,157,76.73,146.39,105.79c-.56,1.53-1.16,3.07-1.77,4.63-3.09,7.87-6.28,16-3.67,23.37,1.28,3.6,3.81,6.62,6.49,9.82,2.87,3.42,5.83,6.95,7.31,11.38,2.76,8.29-.47,16.62-3.59,24.67-3,7.83-5.89,15.23-3.37,22.19a33.24,33.24,0,0,0,1.68,3.63c1.76,3.47,3.75,7.4,2,12.18a11.69,11.69,0,0,1-11.14,8.06Zm-7.61-123.61a2,2,0,0,1,1.19,3.6c-8.45,6.32-7.31,19.7-3.77,29.24,1,2.62,2.13,5.3,3.24,7.89,3.48,8.08,7.08,16.44,6.46,25.46-.47,6.75-3.26,12.91-6,18.86-1,2.19-2,4.45-2.9,6.68-2.25,5.72-6.34,19.75,4.36,26.39a8.91,8.91,0,0,0,7.58,1.06,7.92,7.92,0,0,0,4.8-5c1.13-3.16-.25-5.87-1.85-9a37,37,0,0,1-1.87-4.08c-3-8.37.24-16.82,3.4-25,3-7.74,5.83-15,3.52-22-1.23-3.7-3.83-6.8-6.57-10.07s-5.68-6.77-7.2-11.06c-3.11-8.78.36-17.61,3.71-26.16.6-1.53,1.2-3,1.75-4.55,10-27.43,3.52-60.27-16.2-82A40,40,0,0,0,128,50.71c.35.77.72,1.53,1.08,2.3,1.5,3.09,3,6.28,3.13,9.93.19,7.85-7.48,16.46-20.63,17.29a83.49,83.49,0,0,1-11.21-.33c-5.29-.41-10.29-.79-15.15.3a17.15,17.15,0,0,0-11.26,8.93,8.56,8.56,0,0,0-.48,6.39l33.15-2a2,2,0,0,1,2.06,1.52,2,2,0,0,1-1.12,2.3A32.11,32.11,0,0,0,89.91,119c14.62-2.39,41.63-16.51,41.92-16.66A1.91,1.91,0,0,1,132.76,102.11Z"/>
  </g>
</svg>
