<svg id="Layer_1" data-name="Layer 1" xmlns="http://www.w3.org/2000/svg" viewBox="0 0 250 250">
  <path d="M112.75,93.33c12.16-.27,24.31-.46,36.46-.88a12.77,12.77,0,0,0,6.35-1.81,6.08,6.08,0,0,0,2.18-4.55c-.11-5-4.4-9.13-8.71-10.15-8.61-2-17.1-1.43-25.73-.32-7,.9-14.12,1-21.16,1.67s-13.89,1.37-20.78,2.48C73.75,81,72.75,72,81,71c7.18-1.26,14.37-2.54,21.6-3.5q15.74-2.07,31.54-3.73a77.51,77.51,0,0,1,10.22-.42c7.11.2,14.28,1.45,20,5.75a16.34,16.34,0,0,1,6.47,11c.39,2.71.74,5.44.88,8.18.23,4.61-.14,9.14-4.68,11.78a15.26,15.26,0,0,1-5.79,1.93c-22.11,2.47-44.27,3.89-66.53,2.53-4.23-.26-8.45-.87-12.69-1-3.73-.15-7.72-.34-10.14,3.28-.85,1.29-1.22,5.25,2,6.84,4,1.45,8,.46,12.1.16,9.63-.71,19.28-1.52,28.92-1.49q21.84.08,43.66,1.35c4.92.28,10.11,1.27,14.15,4.7A18,18,0,0,1,179.12,130c.5,4.28.24,8.64.39,13s-3,8-7.67,9.36A62.69,62.69,0,0,1,152.38,155c-14.56-.27-29.11-1-43.66-1.64-5.81-.23-11.62-.91-17.41-.67-4,.17-8,.78-11.39,3.65-3.18,2.72-2.62,6.51.11,9.33a12,12,0,0,0,8.78,3.4c3.32,0,6.66-.1,10-.18q21.22-.51,42.43-1.05c4.08-.11,8.15-.26,12.22-.5,2.13-.13,2.31-.29,3,2.82a35.7,35.7,0,0,1,.44,4.44c.22,3.06-.09,3.43-3.34,3.66a5.82,5.82,0,0,1-.59,0c-8.12-.21-45.9.63-64.41.44-4.09,0-8.2-1.09-12.23-2-3.54-.78-5.5-3.62-6.66-6.73-2.54-6.84-2.55-13.81,1.42-20a15.91,15.91,0,0,1,13.25-7.08c8.75-.11,17.49,0,26.24.13,15.65.22,31.3.54,47,.7,3.13,0,6.31-.13,9-2.15a8,8,0,0,0,.35-12.45,18,18,0,0,0-12.57-4.74c-16.4.32-32.79.83-49.19,1.22-12.32.28-24.64.43-37,.75-6.37.16-10-3.42-10.67-9.08-.95-7.5.26-14.67,6.36-20a17.11,17.11,0,0,1,11.22-4.58c9.65,0,19.31.3,29,.44,2.91,0,5.83,0,8.74,0Z"/>
</svg>
