<svg xmlns="http://www.w3.org/2000/svg" viewBox="0 0 250 250">
  <g id="Isolation_Mode" data-name="Isolation Mode">
    <g>
      <path d="M116.86,197.12a15.38,15.38,0,0,1-2.13-.18c-6.67-1-12.36-4.78-14.16-9.43-5.4-13.95-5.39-27.37,0-41a80.94,80.94,0,0,1,6.6-12.26,77.34,77.34,0,0,0,6.28-11.63c3.55-9,3.07-18.25,2.56-28.11-.2-3.89-.41-7.91-.34-11.88.18-10.36,3.29-29.07,22.08-37.94a2,2,0,0,1,2.48.65,2,2,0,0,1-.21,2.57c-11,11-9,26.5-6.06,38.75q.57,2.31,1.14,4.56c3,11.86,5.82,23.06,0,35.49-2.1,4.48-5.1,9.58-8,14.52-2,3.33-3.83,6.49-5.36,9.36-5.7,10.68-4.71,19.81-1.26,31.07,1.52,5,2.78,10.49.63,13.72h0C120.15,196.79,118.36,197.12,116.86,197.12Zm14-143.07c-5.94,5.53-10.92,14.4-11.17,28.61-.07,3.83.14,7.78.34,11.61.5,9.84,1,20-2.84,29.78a80.06,80.06,0,0,1-6.6,12.26,77.82,77.82,0,0,0-6.28,11.63c-5.09,12.86-5.1,25,0,38.13,1.25,3.24,5.89,6.15,11,6.91a6.22,6.22,0,0,0,2.53,0c.83-1.47.43-4.9-1.2-10.22-3.64-11.91-4.77-22.27,1.56-34.12,1.57-2.95,3.45-6.14,5.44-9.51,2.86-4.86,5.82-9.88,7.84-14.19,5.22-11.14,2.68-21.18-.25-32.81-.38-1.51-.77-3-1.15-4.6C127.62,77.29,125.81,64.89,130.86,54.05Z"/>
      <path d="M154.58,197.12a12,12,0,0,1-3.45-.7,27.48,27.48,0,0,1-14.53-10.23c-6.94-10.05-6.41-21.53,1.65-36.12a89.29,89.29,0,0,1,8.18-11.58c5.08-6.45,9.88-12.53,10.62-19.34.44-4.1-.65-8.23-1.81-12.59-.5-1.92-1-3.91-1.42-5.9-1.7-8.76.4-15.74,6.08-20.2a2,2,0,0,1,3,2.43C161,87,164.5,93.08,167.88,99c2.14,3.74,4.16,7.26,5,10.51,2.86,11.5.55,24.28-6,33.36-2.79,3.86-9,13.93-11.36,17.93-2.63,4.39-.91,10.14.92,16.22,1.93,6.4,3.92,13,.83,18.76h0A2.77,2.77,0,0,1,154.58,197.12Zm-.87-3.27Zm4.94-105.64c-1.5,3.13-1.8,7-.9,11.68.36,1.86.87,3.79,1.36,5.64,1.2,4.53,2.44,9.21,1.92,14-.86,8-6.25,14.78-11.46,21.38a87.09,87.09,0,0,0-7.82,11c-7.34,13.29-7.92,23.13-1.86,31.91a23.57,23.57,0,0,0,12.44,8.69,15.56,15.56,0,0,0,1.75.45c1.73-4.16.15-9.4-1.51-14.92-2-6.65-4.06-13.52-.53-19.42,2.42-4.05,8.7-14.26,11.56-18.22,5.89-8.16,8-19.67,5.37-30.06-.68-2.7-2.56-6-4.56-9.48C162,96.7,159.46,92.34,158.65,88.21Z"/>
      <path d="M82.23,185.57c-6.77,0-15.61-2.49-17.27-12.11-3.26-18.79-.71-35.23,7.58-48.86.59-1,1.21-1.95,1.83-2.92,2-3.14,3.91-6.11,4.87-9.24,1.27-4.14.87-8.46.44-13-.19-2-.38-4.05-.43-6.1C79,81.67,83.64,69.93,92.33,60.23a2,2,0,0,1,3.21,2.37,33.2,33.2,0,0,0-3.85,26.3c.57,2,1.35,4.06,2.11,6,1.46,3.86,3,7.84,3.21,12.06.41,7.66-3.45,16-7.18,24.09-1.68,3.65-3.27,7.09-4.37,10.27-3.21,9.32,0,20.39,2.32,28.48,1.77,6.14,3,10.58,1.52,13.31a4.24,4.24,0,0,1-2.64,2l-.2,0A25.43,25.43,0,0,1,82.23,185.57Zm3.89-2.31h0Zm.61-107.12a40.56,40.56,0,0,0-3.48,17.07c0,1.91.23,3.9.41,5.82.45,4.76.91,9.68-.59,14.58-1.12,3.66-3.26,7-5.33,10.23-.6.94-1.21,1.89-1.78,2.84C68.19,139.46,65.81,155,68.9,172.77c1.81,10.48,15.24,8.77,16.77,8.54.1,0,.12-.07.14-.11.71-1.27-.66-6-1.88-10.25-2.48-8.6-5.87-20.37-2.25-30.9,1.16-3.36,2.79-6.89,4.52-10.63,3.52-7.64,7.17-15.54,6.81-22.21-.19-3.59-1.53-7.11-3-10.84-.79-2.07-1.61-4.22-2.22-6.39A36,36,0,0,1,86.73,76.14Z"/>
    </g>
  </g>
</svg>
