<svg xmlns="http://www.w3.org/2000/svg" viewBox="0 0 800 800">
  <g>
    <g>
      <circle class="cls-1" cx="277.34" cy="225.8" r="61.86" fill="#cecce7"/>
      <circle class="cls-1" cx="339.21" cy="225.8" r="61.86" fill="#cecce7"/>
      <circle class="cls-1" cx="401.07" cy="225.8" r="61.86" fill="#cecce7"/>
      <circle class="cls-1" cx="462.93" cy="225.8" r="61.86" fill="#cecce7"/>
      <circle class="cls-1" cx="522.66" cy="225.8" r="61.86" fill="#cecce7"/>
    </g>
    <g>
      <circle class="cls-1" cx="277.34" cy="287.67" r="61.86" fill="#cecce7"/>
      <circle class="cls-1" cx="339.21" cy="287.67" r="61.86" fill="#cecce7"/>
      <circle class="cls-1" cx="401.07" cy="287.67" r="61.86" fill="#cecce7"/>
      <circle class="cls-1" cx="462.93" cy="287.67" r="61.86" fill="#cecce7"/>
      <circle class="cls-1" cx="522.66" cy="287.67" r="61.86" fill="#cecce7"/>
    </g>
    <g>
      <circle class="cls-1" cx="277.34" cy="360.02" r="61.86" fill="#cecce7"/>
      <circle class="cls-1" cx="339.21" cy="360.02" r="61.86" fill="#cecce7"/>
      <circle class="cls-1" cx="401.07" cy="360.02" r="61.86" fill="#cecce7"/>
      <circle class="cls-1" cx="462.93" cy="360.02" r="61.86" fill="#cecce7"/>
      <circle class="cls-1" cx="522.66" cy="360.02" r="61.86" fill="#cecce7"/>
    </g>
    <g>
      <circle class="cls-1" cx="277.34" cy="450.47" r="61.86" fill="#cecce7"/>
      <circle class="cls-1" cx="339.21" cy="450.47" r="61.86" fill="#cecce7"/>
      <circle class="cls-1" cx="401.07" cy="450.47" r="61.86" fill="#cecce7"/>
      <circle class="cls-1" cx="462.93" cy="450.47" r="61.86" fill="#cecce7"/>
      <circle class="cls-1" cx="522.66" cy="450.47" r="61.86" fill="#cecce7"/>
    </g>
    <g>
      <circle class="cls-1" cx="277.34" cy="535.47" r="61.86" fill="#cecce7"/>
      <circle class="cls-1" cx="339.21" cy="535.47" r="61.86" fill="#cecce7"/>
      <circle class="cls-1" cx="401.07" cy="535.47" r="61.86" fill="#cecce7"/>
      <circle class="cls-1" cx="462.93" cy="535.47" r="61.86" fill="#cecce7"/>
      <circle class="cls-1" cx="522.66" cy="535.47" r="61.86" fill="#cecce7"/>
    </g>
    <g>
      <circle class="cls-1" cx="277.34" cy="574.2" r="61.86" fill="#cecce7"/>
      <circle class="cls-1" cx="339.21" cy="574.2" r="61.86" fill="#cecce7"/>
      <circle class="cls-1" cx="401.07" cy="574.2" r="61.86" fill="#cecce7"/>
      <circle class="cls-1" cx="462.93" cy="574.2" r="61.86" fill="#cecce7"/>
      <circle class="cls-1" cx="522.66" cy="574.2" r="61.86" fill="#cecce7"/>
    </g>
  </g>
</svg>
