<svg xmlns="http://www.w3.org/2000/svg" viewBox="0 0 800 800">
  <g>
    <g>
      <circle class="cls-1" cx="183.48" cy="337.12" r="61.86" fill="#cecce7"/>
      <circle class="cls-1" cx="245.34" cy="337.12" r="61.86" fill="#cecce7"/>
      <circle class="cls-1" cx="307.2" cy="337.12" r="61.86" fill="#cecce7"/>
      <circle class="cls-1" cx="369.07" cy="337.12" r="61.86" fill="#cecce7"/>
      <circle class="cls-1" cx="430.93" cy="337.12" r="61.86" fill="#cecce7"/>
      <circle class="cls-1" cx="492.8" cy="337.12" r="61.86" fill="#cecce7"/>
      <circle class="cls-1" cx="554.66" cy="337.12" r="61.86" fill="#cecce7"/>
      <circle class="cls-1" cx="616.52" cy="337.12" r="61.86" fill="#cecce7"/>
    </g>
    <g>
      <circle class="cls-1" cx="183.48" cy="462.88" r="61.86" fill="#cecce7"/>
      <circle class="cls-1" cx="245.34" cy="462.88" r="61.86" fill="#cecce7"/>
      <circle class="cls-1" cx="307.2" cy="462.88" r="61.86" fill="#cecce7"/>
      <circle class="cls-1" cx="369.07" cy="462.88" r="61.86" fill="#cecce7"/>
      <circle class="cls-1" cx="430.93" cy="462.88" r="61.86" fill="#cecce7"/>
      <circle class="cls-1" cx="492.8" cy="462.88" r="61.86" fill="#cecce7"/>
      <circle class="cls-1" cx="554.66" cy="462.88" r="61.86" fill="#cecce7"/>
      <circle class="cls-1" cx="616.52" cy="462.88" r="61.86" fill="#cecce7"/>
    </g>
    <g>
      <circle class="cls-1" cx="209.03" cy="400.09" r="61.86" fill="#cecce7"/>
      <circle class="cls-1" cx="270.89" cy="400.09" r="61.86" fill="#cecce7"/>
      <circle class="cls-1" cx="332.75" cy="400.09" r="61.86" fill="#cecce7"/>
      <circle class="cls-1" cx="394.62" cy="400.09" r="61.86" fill="#cecce7"/>
      <circle class="cls-1" cx="456.48" cy="400.09" r="61.86" fill="#cecce7"/>
      <circle class="cls-1" cx="518.35" cy="400.09" r="61.86" fill="#cecce7"/>
      <circle class="cls-1" cx="580.21" cy="400.09" r="61.86" fill="#cecce7"/>
    </g>
  </g>
</svg>
