<svg width="655" height="236" viewBox="0 0 655 236" fill="none" xmlns="http://www.w3.org/2000/svg">
  <path d="M158.787 8.07679L158.43 6.61996L158.787 8.07679ZM67.2239 18.2578L66.2445 19.3939L67.2239 18.2578ZM16.6084 63.6994L15.1441 64.0248L16.6084 63.6994ZM228.739 18.2578L227.723 19.3619L228.739 18.2578ZM158.43 6.61996C147.991 9.17993 138.375 12.2621 129.523 15.1409C120.648 18.0268 112.581 20.6948 105.145 22.4714C90.2859 26.0213 78.391 25.9038 68.2033 17.1217L66.2445 19.3939C77.5404 29.1314 90.6689 29.0142 105.842 25.3892C113.422 23.5783 121.622 20.865 130.451 17.9938C139.302 15.1154 148.824 12.0645 159.144 9.53362L158.43 6.61996ZM68.2033 17.1217C61.2084 11.0918 53.8513 8.95271 46.8495 9.78358C39.8889 10.6096 33.4619 14.3474 28.2123 19.7341C17.7474 30.4723 11.6107 48.1241 15.1441 64.0248L18.0727 63.374C14.7816 48.5639 20.5255 31.9201 30.3608 21.8279C35.2614 16.7993 41.0894 13.4882 47.2031 12.7627C53.2756 12.0421 59.8122 13.849 66.2445 19.3939L68.2033 17.1217ZM15.1441 64.0248C18.4561 78.9291 14.11 94.3014 9.2241 109.123C6.80108 116.474 4.23778 123.719 2.53035 130.549C0.821518 137.384 -0.078181 143.973 0.909805 150.056L3.87101 149.575C2.97918 144.084 3.76987 137.96 5.44077 131.276C7.11305 124.587 9.61882 117.509 12.0733 110.063C16.9424 95.2916 21.5851 79.1805 18.0727 63.374L15.1441 64.0248ZM0.909805 150.056C2.75659 161.428 3.79343 175.959 7.29706 188.922C10.82 201.957 16.949 213.938 29.3247 220.224L30.6833 217.549C19.4271 211.832 13.6291 200.852 10.1931 188.14C6.73786 175.355 5.78385 161.353 3.87101 149.575L0.909805 150.056ZM29.3247 220.224C35.6426 223.433 43.3662 223.601 51.6602 222.545C59.955 221.489 69.138 219.157 78.3933 217.137C97.1124 213.052 116.251 210.235 131.781 220.151L133.395 217.623C116.7 206.962 96.3623 210.146 77.7537 214.206C68.3451 216.259 59.4013 218.535 51.2813 219.569C43.1606 220.603 36.1814 220.342 30.6833 217.549L29.3247 220.224ZM131.781 220.151C148.183 230.624 169.023 235.607 189.192 235.498C209.35 235.39 229.016 230.194 243.031 220.104L241.278 217.669C227.901 227.3 208.896 232.392 189.176 232.498C169.466 232.604 149.219 227.727 133.395 217.623L131.781 220.151ZM243.031 220.104C256.218 210.61 273.817 210.519 291.834 212.978C300.819 214.204 309.767 216.041 318.244 217.589C326.674 219.129 334.651 220.387 341.516 220.387V217.387C334.954 217.387 327.221 216.179 318.783 214.638C310.392 213.105 301.314 211.244 292.239 210.006C274.137 207.535 255.482 207.443 241.278 217.669L243.031 220.104ZM341.516 220.387C348.109 220.387 357.867 221.602 369.576 223.147C381.237 224.686 394.751 226.54 408.721 227.776C436.578 230.24 466.629 230.294 487.713 220.241L486.422 217.533C466.15 227.199 436.852 227.253 408.986 224.788C395.094 223.559 381.653 221.715 369.968 220.173C358.33 218.637 348.35 217.387 341.516 217.387V220.387ZM487.713 220.241C507.998 210.568 524.626 212.667 542.965 212.992C561.35 213.316 581.024 211.784 606.607 194.406L604.922 191.924C580.018 208.841 561.022 210.31 543.018 209.992C524.97 209.673 507.492 207.486 486.422 217.533L487.713 220.241ZM606.607 194.406C632.084 177.1 646.837 156.037 652.188 137.311C657.52 118.65 653.549 101.932 640.926 94.1461L639.351 96.6995C650.359 103.489 654.444 118.495 649.303 136.487C644.181 154.415 629.931 174.935 604.922 191.924L606.607 194.406ZM640.926 94.1461C617.574 79.7432 600.003 56.8264 585.489 37.0891L583.072 38.8664C597.561 58.5689 615.439 81.9511 639.351 96.6995L640.926 94.1461ZM585.489 37.0891C578.057 26.9828 568.691 20.2245 555.771 19.4399C542.96 18.6619 526.928 23.7795 506.147 36.704L507.732 39.2515C528.307 26.4543 543.694 21.712 555.589 22.4344C567.376 23.1502 576.003 29.2527 583.072 38.8664L585.489 37.0891ZM506.147 36.704C495.725 43.1859 487.576 49.6654 480.603 55.2983C473.592 60.9612 467.872 65.6799 462.175 68.8158C456.546 71.9144 451.016 73.4196 444.423 72.6587C437.771 71.8911 429.9 68.8016 419.649 62.4257L418.065 64.9731C428.491 71.4581 436.8 74.799 444.079 75.639C451.417 76.4857 457.569 74.7757 463.621 71.4439C469.606 68.1494 475.567 63.2225 482.488 57.632C489.445 52.0118 497.476 45.6304 507.732 39.2515L506.147 36.704ZM419.649 62.4257C399.198 49.7057 388.72 33.7249 378.666 22.9164C373.69 17.5669 368.717 13.3952 362.63 11.9615C356.489 10.515 349.542 11.9237 340.769 16.9567L342.262 19.5589C350.676 14.7319 356.822 13.6756 361.942 14.8816C367.117 16.1005 371.576 19.6989 376.47 24.9596C386.154 35.3715 397.16 51.9714 418.065 64.9731L419.649 62.4257ZM340.769 16.9567C323.859 26.6583 301.341 31.5893 280.345 31.6098C259.285 31.6304 240.151 26.7147 229.754 17.1537L227.723 19.3619C238.951 29.6864 259.02 34.6307 280.348 34.6098C301.74 34.589 324.799 29.5772 342.262 19.5589L340.769 16.9567ZM229.754 17.1537C221.201 9.28875 215.253 3.51218 205.368 1.39662C195.583 -0.697827 182.098 0.81532 158.43 6.61996L159.144 9.53362C182.836 3.72321 195.703 2.39586 204.741 4.33018C213.68 6.24337 219.027 11.3648 227.723 19.3619L229.754 17.1537Z" fill="black"/>
</svg>
