<svg width="62" height="62" viewBox="0 0 62 62" fill="none" xmlns="http://www.w3.org/2000/svg">
    <circle cx="31" cy="31" r="31" fill="black"/>
    <path d="M18.5132 37.375V24.1914H23.2593C24.5718 24.1914 25.5972 24.4844 26.3355 25.0703C27.0796 25.6562 27.4517 26.4678 27.4517 27.5049C27.4517 28.208 27.2788 28.8232 26.9331 29.3506C26.5933 29.8779 26.1362 30.2646 25.562 30.5107C26.3472 30.7158 26.9624 31.0996 27.4077 31.6621C27.853 32.2188 28.0757 32.9014 28.0757 33.71C28.0757 34.4424 27.8941 35.084 27.5308 35.6348C27.1734 36.1855 26.6665 36.6133 26.0103 36.918C25.3599 37.2227 24.5982 37.375 23.7251 37.375H18.5132ZM20.4468 29.9131H23.1802C23.9009 29.9131 24.4751 29.7285 24.9029 29.3594C25.3306 28.9902 25.5445 28.498 25.5445 27.8828C25.5445 27.2676 25.3247 26.7842 24.8853 26.4326C24.4517 26.0752 23.857 25.8965 23.1011 25.8965H20.4468V29.9131ZM20.4468 35.6699H23.2769C23.8452 35.6699 24.3404 35.5791 24.7622 35.3975C25.1841 35.21 25.5122 34.9521 25.7466 34.624C25.981 34.29 26.0982 33.9033 26.0982 33.4639C26.0982 33.0361 25.9868 32.6641 25.7642 32.3477C25.5474 32.0312 25.2368 31.791 24.8325 31.627C24.4282 31.457 23.9536 31.3721 23.4087 31.3721H20.4468V35.6699ZM33.6518 37.375H31.6216L36.9829 24.1914H39.0571L44.4096 37.375H42.3794L41.061 34.0615H34.9702L33.6518 37.375ZM35.6294 32.3564H40.4018L38.0112 26.3359L35.6294 32.3564Z" fill="#F1F6E7"/>
</svg>
